<?xml version="1.0" encoding="UTF-8"?>
<!DOCTYPE svg PUBLIC "-//W3C//DTD SVG 1.1//EN" "http://www.w3.org/Graphics/SVG/1.1/DTD/svg11.dtd">
<!-- Creator: CorelDRAW 2021.5 -->
<svg xmlns="http://www.w3.org/2000/svg" xml:space="preserve" width="500px" height="500px" version="1.1" style="shape-rendering:geometricPrecision; text-rendering:geometricPrecision; image-rendering:optimizeQuality; fill-rule:evenodd; clip-rule:evenodd"
viewBox="0 0 26.08 26.07"
 xmlns:xlink="http://www.w3.org/1999/xlink"
 xmlns:xodm="http://www.corel.com/coreldraw/odm/2003">
 <defs>
    <style type="text/css">
        @keyframes gearRotate {
            from {
                -ms-transform: rotate(0deg);
                -moz-transform: rotate(0deg);
                -webkit-transform: rotate(0deg);
                -o-transform: rotate(0deg);
                transform: rotate(0deg);
            }
            to {
                -ms-transform: rotate(360deg);
                -moz-transform: rotate(360deg);
                -webkit-transform: rotate(360deg);
                -o-transform: rotate(360deg);
                transform: rotate(360deg);
            }
        }

        .gear {
            transform-origin: center;
            -webkit-animation: gearRotate 5s linear infinite;
            -moz-animation: gearRotate 5s linear infinite;
            -ms-animation: gearRotate 5s linear infinite;
            -o-animation: gearRotate 5s linear infinite;
            animation: gearRotate 5s linear infinite;
        }
    </style>
    <linearGradient
        id="gradient"
        gradientUnits="userSpaceOnUse"
    >
        <animateTransform
            attributeName="gradientTransform"
            type="rotate"
            keyTimes="0; 0.5; 1"
            values="67.5 13.2 13.2; -112.5 13.2 13.2; -292.5 13.2 13.2"
            dur="5s"
            repeatCount="indefinite"
        />
        <stop offset="0%" stop-color="#EC2F4B" />
        <stop offset="100%" stop-color="#8C5C95" />
    </linearGradient>
 </defs>
 <g id="Layer_x0020_1">
  <metadata id="CorelCorpID_0Corel-Layer"/>
  <g id="_2247844361344">
   <path class="gear" fill="white" d="M17.67 22.98c-0.29,0.14 -0.6,0.26 -0.93,0.38 -0.22,0.08 -0.44,0.15 -0.67,0.22l-0.49 1.97 -0.08 0.32 -0.33 0.04c-0.7,0.1 -1.4,0.16 -2.11,0.16 -0.72,0.01 -1.43,-0.04 -2.17,-0.16l-0.32 -0.05 -0.08 -0.32 -0.48 -1.96c-0.4,-0.12 -0.79,-0.25 -1.17,-0.41 -0.38,-0.16 -0.75,-0.34 -1.11,-0.54l-1.75 1.05 -0.28 0.17 -0.27 -0.2c-0.57,-0.43 -1.1,-0.88 -1.6,-1.38 -0.51,-0.5 -0.98,-1.04 -1.42,-1.64l-0.2 -0.27 0.17 -0.28 1.06 -1.74c-0.04,-0.07 -0.07,-0.13 -0.11,-0.2 -0.08,-0.16 -0.16,-0.32 -0.23,-0.46 -0.14,-0.3 -0.27,-0.61 -0.38,-0.94 -0.09,-0.23 -0.16,-0.46 -0.22,-0.68l-1.97 -0.5 -0.32 -0.08 -0.05 -0.32c-0.1,-0.7 -0.16,-1.4 -0.16,-2.11 0,-0.72 0.05,-1.44 0.16,-2.17l0.05 -0.32 0.32 -0.08 1.98 -0.49c0.11,-0.4 0.25,-0.79 0.41,-1.16 0.16,-0.38 0.33,-0.75 0.53,-1.11l-1.04 -1.74 -0.17 -0.29 0.2 -0.26c0.43,-0.57 0.88,-1.11 1.38,-1.61 0.5,-0.5 1.04,-0.97 1.64,-1.41l0.27 -0.2 0.28 0.17 1.74 1.06c0.06,-0.04 0.13,-0.07 0.19,-0.1 0.17,-0.09 0.32,-0.17 0.46,-0.24 0.3,-0.13 0.62,-0.26 0.95,-0.38 0.23,-0.08 0.46,-0.16 0.69,-0.22l0.5 -1.97 0.08 -0.32 0.32 -0.05c0.7,-0.1 1.4,-0.16 2.11,-0.16 0.72,0 1.43,0.05 2.17,0.16l0.32 0.05 0.08 0.32 0.49 1.99c0.39,0.11 0.77,0.25 1.14,0.4 0.37,0.16 0.74,0.33 1.1,0.53l1.74 -1.04 0.28 -0.17 0.27 0.2c0.57,0.42 1.1,0.88 1.6,1.37 0.51,0.5 0.98,1.05 1.42,1.65l0.2 0.26 -0.17 0.28 -1.06 1.74c0.04,0.07 0.08,0.13 0.11,0.2 0.09,0.16 0.17,0.32 0.24,0.47 0.13,0.29 0.26,0.61 0.38,0.93 0.08,0.23 0.15,0.46 0.22,0.68l1.97 0.5 0.32 0.08 0.05 0.33c0.1,0.7 0.15,1.39 0.16,2.1 0,0.72 -0.05,1.44 -0.16,2.17l-0.05 0.33 -0.32 0.07 -1.98 0.49c-0.12,0.4 -0.25,0.78 -0.41,1.16 -0.15,0.37 -0.33,0.73 -0.52,1.09l1.05 1.76 0.16 0.28 -0.19 0.26c-0.43,0.57 -0.88,1.11 -1.38,1.61 -0.5,0.5 -1.04,0.97 -1.65,1.42l-0.26 0.19 -0.28 -0.17 -1.75 -1.05c-0.06,0.03 -0.13,0.07 -0.19,0.1 -0.17,0.09 -0.33,0.17 -0.48,0.24z"/>
   <path class="gear" fill="url(#gradient)" d="M17.46 22.53c-0.59,0.28 -1.19,0.49 -1.8,0.65l-0.56 2.25c-1.37,0.19 -2.7,0.22 -4.13,0l-0.56 -2.25c-0.94,-0.24 -1.85,-0.62 -2.69,-1.12l0 0.01 -1.99 1.19c-1.11,-0.83 -2.07,-1.76 -2.93,-2.92l1.21 -1.99 0 0c-0.17,-0.29 -0.32,-0.58 -0.46,-0.88 -0.28,-0.6 -0.5,-1.2 -0.66,-1.82l0 0 -2.24 -0.56c-0.2,-1.37 -0.22,-2.7 0,-4.14l2.25 -0.55 0.01 0c0.24,-0.94 0.62,-1.85 1.11,-2.69l0 0 -1.19 -1.99c0.83,-1.1 1.76,-2.06 2.92,-2.92l1.99 1.21 0.01 0c0.27,-0.17 0.56,-0.32 0.86,-0.46 0.6,-0.28 1.22,-0.5 1.84,-0.66l0 0 0.56 -2.24c1.37,-0.2 2.7,-0.22 4.13,0l0.56 2.25 -0.01 0.01c0.94,0.25 1.83,0.62 2.66,1.11l0 0 1.99 -1.19c1.11,0.83 2.07,1.75 2.92,2.92l-1.19 1.98c0.16,0.29 0.32,0.58 0.46,0.89 0.28,0.59 0.49,1.2 0.65,1.81l0 0 2.25 0.57c0.2,1.36 0.22,2.7 0,4.13l-2.26 0.55c-0.24,0.94 -0.62,1.84 -1.11,2.68l0.02 0 1.19 1.99c-0.83,1.1 -1.76,2.06 -2.93,2.92l-1.99 -1.2 0 0c-0.28,0.16 -0.58,0.32 -0.89,0.46zm-3.34 -7.15c-1.29,0.6 -2.82,0.04 -3.42,-1.25 -0.6,-1.29 -0.04,-2.82 1.25,-3.42 1.28,-0.6 2.82,-0.04 3.42,1.25 0.6,1.28 0.04,2.81 -1.25,3.42zm-0.3 -0.66c-0.93,0.43 -2.03,0.03 -2.46,-0.89 -0.44,-0.93 -0.04,-2.03 0.89,-2.46 0.93,-0.44 2.03,-0.04 2.46,0.89 0.43,0.93 0.03,2.03 -0.89,2.46zm3.81 -0.02c-0.11,0.29 -0.24,0.56 -0.38,0.81l0.55 0.92c-0.39,0.52 -0.82,0.97 -1.36,1.37l-0.92 -0.56c-0.39,0.23 -0.82,0.4 -1.26,0.52l0 0 -0.26 1.05c-0.64,0.09 -1.26,0.1 -1.93,0l-0.25 -1.05 0 0c-0.15,-0.04 -0.3,-0.09 -0.45,-0.14 -0.28,-0.11 -0.55,-0.24 -0.81,-0.39l0 0 -0.93 0.56c-0.51,-0.39 -0.96,-0.82 -1.36,-1.36l0.56 -0.93 0 0c-0.22,-0.39 -0.4,-0.81 -0.51,-1.25l0 0 -1.05 -0.26c-0.09,-0.64 -0.1,-1.26 0,-1.93l1.05 -0.26 0 0c0.04,-0.14 0.09,-0.29 0.14,-0.43 0.11,-0.29 0.24,-0.57 0.39,-0.82l0 0 -0.56 -0.93c0.39,-0.51 0.82,-0.96 1.36,-1.36l0.93 0.56 0 0c0.39,-0.22 0.81,-0.39 1.24,-0.51l0 0 0.26 -1.04c0.64,-0.1 1.26,-0.11 1.93,0l0.26 1.04c0.15,0.04 0.29,0.09 0.44,0.14 0.29,0.11 0.56,0.23 0.81,0.38l0 0 0.93 -0.55c0.51,0.39 0.96,0.82 1.36,1.36l-0.56 0.93c0.23,0.39 0.4,0.81 0.51,1.24l0.01 0 1.05 0.26c0.09,0.64 0.1,1.26 0,1.93l-1.06 0.26 0 0c-0.03,0.15 -0.08,0.29 -0.13,0.44zm0.94 3.4c-0.31,0.35 -0.65,0.65 -1.01,0.93l0.24 1.63c-0.85,0.51 -1.73,0.89 -2.73,1.14l-0.99 -1.34c-0.69,0.1 -1.39,0.1 -2.09,0l0.01 0.01 -0.99 1.33c-0.96,-0.24 -1.85,-0.6 -2.74,-1.13l0.25 -1.65 0 0c-0.18,-0.14 -0.37,-0.29 -0.54,-0.45 -0.35,-0.32 -0.66,-0.66 -0.93,-1.03l0 0 -1.64 0.24c-0.51,-0.85 -0.89,-1.72 -1.14,-2.73l1.34 -0.99 0 0c-0.09,-0.69 -0.09,-1.39 0.01,-2.08l0 0 -1.33 -0.99c0.24,-0.96 0.59,-1.84 1.13,-2.73l1.64 0.25 0 0c0.14,-0.19 0.29,-0.37 0.45,-0.54 0.32,-0.35 0.67,-0.66 1.04,-0.94l0 0 -0.24 -1.64c0.85,-0.5 1.72,-0.88 2.73,-1.13l0.99 1.34 -0.01 0.01c0.69,-0.1 1.38,-0.09 2.07,0l0 0 0.99 -1.33c0.95,0.24 1.84,0.59 2.73,1.13l-0.25 1.64c0.19,0.14 0.37,0.3 0.55,0.46 0.35,0.32 0.65,0.66 0.93,1.02l0 0 1.64 -0.24c0.5,0.85 0.88,1.72 1.13,2.73l-1.34 0.99c0.1,0.68 0.1,1.38 0,2.07l0.01 0 1.33 0.99c-0.24,0.96 -0.59,1.84 -1.13,2.73l-1.65 -0.25 0 0c-0.14,0.19 -0.29,0.37 -0.46,0.55z"/>
  </g>
 </g>
</svg>
